# xmcd
# 
# Track frame offsets:
#     150
#     10371
#     24922
#     37236
#     46929
#     60967
#     75679
#     85848
#     115779
#     129492
#     139456
#     150596
#     165077
#     180511
# 
# Disc length: 2565
# 
# Revision: 0
# Processed by: cddbd v1.5.2PL0 Copyright (c) Steve Scherf et al.
# Submitted via: BonkEnc v1.0.6
# 
DISCID=a30a030e
DTITLE=Various Artist - road trip classics
DYEAR=2007
DGENRE=Country
TTITLE0=dave dudley - six days on the road
TTITLE1=lacy j dalton - working class man
TTITLE2=merle haggard - workin' man blues
TTITLE3=ferlin husky - truck drivin' son of a gun
TTITLE4=johnny paycheck - I'm the only hell mama ever raised
TTITLE5=t g sheppard - motels and memories
TTITLE6=faron young - live fst, love hard, die young
TTITLE7=asleep at the wheel - hot rod lincoln
TTITLE8=billy walker - cross the brazos at waco
TTITLE9=johnny rodriquez - ridin' my thumb to mexico
TTITLE10=johnny russell - king of the road
TTITLE11=lee greenwood - god bless the usa
TTITLE12=red simpson - i'm a truck
TTITLE13=red steagall - truck drivin' man
EXTD=old songs
EXTT0=dave dudley
EXTT1=lacy j dalton
EXTT2=merle haggard
EXTT3=ferlin husky
EXTT4=johnny paycheck
EXTT5=t g sheppard
EXTT6=faron young
EXTT7=asleep at the wheel
EXTT8=billy walker
EXTT9=johnny rodriquez
EXTT10=johnny russell
EXTT11=lee greenwood
EXTT12=red simpson
EXTT13=red steagall
PLAYORDER=
